<svg width="99" height="60" xmlns="http://www.w3.org/2000/svg"><path d="M47.678 41.3c.75.663.974 1.725.775 2.513-.198.783-.71 1.919.018 3.317.724 1.399.556 2.139 1 3.038.44.904.034 1.807 1.275 1.166 1.241-.64 1.44.125 2.84-1.506 1.401-1.635.405-.908.612-1.385.207-.478 1.289.284.927-1.23-.362-1.516 2.138-2.238 1.849-3.835-.289-1.592-.233-.327-.289-1.17-.056-.844-.534-.215.72-1.7 1.254-1.485 2.702-2.362 2.982-3.821.28-1.459-1.47-.043-2.043.034-.569.082-1.086-1.635-1.72-1.742-.633-.108.078-.327-.323-.762-.4-.435-.21-.882-.607-1.355-.397-.478-1.289-1.739-1.431-2.346-.138-.606.319.78.698.289.375-.49.095.439.858 1.243.758.805.12.951.857 1.373.733.422 1.117 2.728 1.707 2.466.59-.263 2.965-1.347 3.073-1.36.108-.013.461-.353.534-.5.074-.146.216-.025.393-.167.18-.138-.29-.443.142-.538.43-.099.202-.856.021-1.067-.18-.211-.81-.194-.818-.77-.005-.435-1.29 1.303-1.948.034-.453-.873-.974-1.29-.535-1.437.022-.009.138-.25.38-.06.081.064 1.038 1.605 1.715 1.204.676-.4.31.246 1.4.414 1.087.167 2.052-.03 2.375.189.328.22.328.452.474.391.151-.06.418.263.711.216.29-.043-.741.572.09.8.828.224.677-.985.634-.267-.043.723 1.074 4.695 1.867 4.45.797-.246.693-2.449.94-2.53.25-.082 1.663-1.287 1.689-1.748.025-.46 1.185.112 1.081-.624-.107-.731.47.624.806.818.34.194.1.164.177.293.078.129.565.206.41.908-.151.7.72.159.814-.203.09-.361.767 1.82.694 2.552-.078.731.483.624.625 1.256.146.633 1.008 1.812 1.293 1.476.289-.335.082-.667-.164-.508-.246.16-.12-.684-.62-1.067-.5-.383-1.074-.31-.94-1.377.13-1.071.353-.864.483-.766.129.104.413.07.581.16.173.09-.146.525.354.555.5.03.198.822.836.27.146-.124 1.388-1.561.008-2.564-.974-.701.431-1.919.565-1.734.138.185.108.452.832.142.724-.31.16-.335.65-.24.488.094 1.285-.629 1.384-.943.1-.31.168-.267.138-.732-.03-.464.595-.67.47-.929-.13-.258-.354-.478-.078-.706.28-.228-.357-.886-.672-1.368-.315-.482-.565-.473-.134-.895.431-.422.957-.495.25-.53-.71-.034-.349-.133-.569.203-.22.336-.306-.22-.327-.271-.022-.056-.668-.31-.418-.542.25-.228.31.008.379-.284.065-.297.672-.758.853-.448.177.31-.116-.008-.163.319-.048.327-.009.447.349.172.362-.276.5-.104.72-.009.224.095.116.654.254.719.129.064.625.185.543.292-.078.108.095.185.142.426.047.241-.16.594.664.47.819-.125-.767-1.713-.85-1.924-.086-.211-.327-.293.108-.327.431-.035.233-.456.125-.211-.107.25-.194-.069-.073-.185.12-.116.422.095.289-.301-.13-.396.099-.895.44-.968.344-.07.448.839 1.224-1.132.775-1.97.103-2.69.056-3.688-.044-.994-1.018-1.575-1.276-1.075-.259.499-1.565.654-.522-1.79 1.043-2.445 3.026-2.062 3.004-1.984-.021.077-.232.357.13.18.362-.176.112-.193.198-.21.086-.018.388.069.38-.16-.014-.223-.57.052-.337-.615.228-.662.19-1.162.616-1.3.423-.141-.025.315.194.1.22-.211-.163-.043.224.348.388.396.332-.21.522-.53.19-.313.267.164.021-.356-.245-.52.414-.598.41-.426-.004.172-.22.24.043.822.263.58-.1.757-.211 1.531-.112.77-.1 1.09-.242 1.756-.146.667 1.078 2.34 1.384 3.249.306.903.737.236.474-.44-.263-.679.461-.193.065-.787-.397-.598.56-.71.185-1.07-.375-.358-.289-1.107-.181-.862.108.25.276-.081.056-.357-.22-.275-.259.073-.297-.198-.04-.27.392-.06.017-.37-.38-.314-.298.25-.716-1.213-.413-1.463.108-.108.332-.327.224-.215.651-.981 1.229-.534.581.448.194-1.3.896-2.07.703-.77.91-.137.457-.787s-.56-.133-.56-.133-.79-.276-1.052-.603c-.263-.327-.345-.129.056-.318.397-.19.806-.31.56-1.072-.245-.761-.366.25-.44-.322-.073-.573.51.168.621.099.108-.07.03-.607.397-.456.362.146.138.482.521.15.384-.335.81.155.263-.366-.547-.52-.297-.7-.18-.925.111-.223.05-.206.02-.322-.034-.117-.163-.315-.775-.525-.582-.198-.1.038-.392.215-.263.159.823.903.241.766-.586-.142-.513-.74-1.814-.84-1.306-.098-2.203-.313-2.832-.124-.625.19-1.073.19-.599.572.478.383.741.245.573.564-.163.314-1.107-.344-1.103-.426.004-.082.172.159.211-.052.039-.21-.224-.512-.41-.224-.189.284.061.629-.81.581-.068-.004-.555.302-.728.4-.552.31-.87-1.428-2.271-.507-1.4.92-.435.24-.729.069-.297-.168-.383.116-.547.103-.164-.009-.06-.306-.194-.103-.133.198-.052-.22-.108-.228-.06-.01-.504.176-.09-.155.414-.332-.707-.392-.918-.147-.207.246.043.77-.155.745-.199-.026-1.4-1.192-1.716-.616-.319.577.332.078.34.211.01.134-.538.542-.184.44.353-.104-.121-.164.28.296.405.46-.698-.095-.25.422.444.512-.746-.134-.776.25-.03.378-.62-.242-.78-.224-.16.017.306.895.267 1.04-.043.147-1.03-.343-.858-.623.173-.28-.008.237-.375-.009-.37-.245.276-.056.087-.361-.19-.306-.272-.056-.34-.116-.07-.06.202-.043-.178-.44-.379-.39-.762-.072-.831-.072-.065.004-.22-.4-.604-.12-.383.279.57.386-.215.73-.789.345-1.065-.313-1.289-.24-.228.073-.806.15-.87.3-.065.156.418.461.012.216-.405-.245-.19-.24-.43-.22-.242.022-.66-.3-.69.044-.03.344.211.348.013.731-.198.387-.138.615-.427.392-.289-.22.565-2.479.5-2.638-.065-.16-.383.052-.349-.194.03-.245.362.207-.073-.421-.436-.624-.289.099-.87-.41-.583-.507-.703.152-.72.26-.018.115.275-.263.107.305-.168.568-.241-.444-.349-.521-.108-.077-.66.288-.758.18-.1-.107.405-.533-.29-.602-1.025-.103.496 1.49.165 1.558-.733.16-.345.099-.242.215.104.116.065.306-.043.28-.108-.026-.034-.452-.297-.267-.259.185-.397.495-.492.46-.094-.034.216-.103.005-.258-.211-.159-.884.375-.522.327.358-.043-1.345.917-1.064.99.284.073-.518.327-.035.568.483.24.073-.198.039.077-.03.276.595.125.595.345-.005.22-.164.12-.207.266-.039.147.172.074.13.168-.044.1-.173.03-.2-.094-.025-.13.225-.319.122-.358-.104-.038-1.992.728-.56 1.365 1.435.636.676 1.923 1.443 1.648.767-.276.263 1.032-.457-.009-.198-.284-.232-.4-.25-.448-.155-.34-.198.827-.25-.055-.056-.878-.388-.547-1.06-.951-.672-.405-.724.223-.586.206.142-.021.388.13.25.228-.134.095-.681-.426-.526-.026.155.4.983.392.996.577.013.185-.953-.043-1.013-.215-.06-.172-.319-1.054-.47-.934-.146.12.254.275.12.56-.137.283-.27.064-.129.567.143.508.53-.296.488.611-.044.908 1.353.534 1.517 1.123.25.895.314.108.37.444.03.185-.211.529-.452-.09-.246-.62-1.173-.655-.892-.212.275.444.21 1.528-.651 1.373-.453-.082-.354-.284-.151-.267.302.026.823.108.12-1.7-.288-.74-.624-1.178-.685-1.772-.06-.594-.396-.555-.745-.52-.35.034-.155-.487-.237-.04-.078.444.125.973-.095 1.257-.216.288.254 1.071.34 1.218.087.146.496.163.703.335.202.172.077.43-.03.49-.108.061-.293-.31-.513-.378-.22-.069-1.638-.654-1.75-.426-.112.232-.633-.61-.655-.237-.013.276 1.228 1.106.5 1.291-.026.009.026-.09-.022-.327-.12-.55-1.323.693-1.418.44-.099-.25.38-.646-.051-.388-.22.133-.25.374-.255.37-.19-.146-.599.327-.775.361-.181.04.146.087.09.138-.056.052-.172-.107-.276.035-.099.142.199.77-.452.486-.655-.284.694-.62-.211-.964-.901-.344-.371.379-.367.805.005.421.647.555.229.688-.418.133-.181-.443-.824.047-.642.491-.142.887-.97.525-.827-.361-.176.259.027.41.202.15.482-.074.362.292-.121.366-1.03-.34-1.018-.762.013-.422-.849-.843-.724-.934.121-.086-.112.104.992.413 1.103.315.65-1.398-.302-1.712-.948-.314-.474-.065-.534-.026-.065.039-2.647-1.007-2.69-.245-.043.761-.345-.026-.526.142-.176.163-.038.043-.21-.07-.173-.11-.03.169-.182.1-.155-.069-.051-.254-.207-.043-.16.206-.646.387-.319.452.324.06-.232.318-.198.4.03.082-.099.727-.349.774-.25.052-.224.508-.237.538-.013.035-.267-.383-.194.035.073.417-.94 1.415-.677 1.48.259.06.54-.379.255.073-.285.452-.651-.55-.608.146.043.697-1.095 1.085-.905 1.769.19.684.086-.069.306.052.22.12-.362.555.34.697.703.142.453-.362.742-.482.288-.116.19-.336.482.58.294.917.32.43.406.582.086.154-.418.335.017.486.435.15.224-.263.741-.31.517-.043.12-1.054.203-1.183.082-.134.556-.073.418-.332-.138-.262.767.495.013-.469-.755-.964.577-1.587.594-2.254.018-.667-.271-.87.612-.71.884.159.09.714-.232 1.092-.324.375-.229.272-.436.25-.206-.017.052 1.089.181 1.351.13.263.423.194.574.405.15.21 1.305-.422 1.53-.362.224.06.22-.228.275.19.056.417-1.797.352-1.573.8.224.447.259.176.22.28-.034.107.108.482-.164.499-.271.017-.396-.723-.642-.026s.759 1.145-.09 1.114c-.854-.034-.28.155-.617.06-.336-.094.13-.507-.668.035-.797.542-.638-.052-.797-.095-.16-.043-.53.405-.759.284-.224-.12-.405-.546-.43-.667-.022-.116.392-.253.478-.357.086-.103-.233-.051-.237-.202-.004-.155.284-.21.082-.387-.199-.177-.56.366-.44.512.12.146-.198-.017-.168.237.03.253.185.92-.022 1.127-.206.206-.142-.207-.288-.06-.112.111.18.159.185.232 0 .026-.082.06-.172.021-.354-.146-1.716 1.472-2.302 1.808-.586.335-1-.185-.866.189.134.37-.026.082.09.168.117.082.449.013.56.275.117.263-.055-.03.298.323.35.353.125.224.013.34-.112.112.06.572-.147.783-.206.21-.258 0-.465-.022-.207-.021.03-.055-.259-.017-.293.039-.379-.051-.525-.069-.151-.021-.082.018-.259.018-.172-.005-.108-.052-.276-.048-.168.005-.108.104-.19.164-.081.06-.202-.078-.258.034-.056.116.013.086.082.224s.03-.099.013.194c-.017.292.008.692-.078.925l-.021.056a2.328 2.328 0 0 0-.04.081c-.025.052-.094.07-.077.19.018.12-.06-.026.143.008.202.035-.113.009-.07.147.044.137.126.004.121.189-.004.18-.18.301-.047.349.133.047.086-.018.241-.005.155.017.022-.069.293-.034.272.034.263.383.47.422.207.038.328-.246.487-.272.16-.025.534.13.634.013.099-.116.18-.03.362-.262.176-.237.25-.331.258-.47.009-.141-.194-.244-.103-.404.09-.159.211-.24.297-.352.086-.112-.138-.048.164-.147.302-.099.396-.137.444-.499.047-.361.073-.391.194-.452.125-.06-.16-.004.202.039s.479.185.673-.009c.194-.193.021-.103.172-.137.15-.03.155-.056.263-.16.112-.107.03-.12.297-.034.268.09.34.448.59.676.255.232 0-.009.109.086.107.099.142.223.323.335.18.112.185-.064.349.125.168.19.336.28.422.336.086.056.138.034.211.129.074.095.117.327.113.417-.01.086-.169.422-.005.375.168-.048.017.017.082-.065s.086-.202.125-.267c.039-.064-.03.056.017-.021.048-.082.018-.181-.094-.357-.113-.177-.13-.276.116-.297.25-.022.246.25.383.24.143-.008.237-.085.052-.223s-.577-.288-.763-.344c-.185-.056.418-.1.026-.224-.392-.125-.595-.366-.758-.56-.16-.193-.268-.202-.367-.288-.099-.086-.077-.112-.077-.215-.005-.107-.117-.198-.013-.28a.443.443 0 0 1 .38-.116c.146.03-.079.276.103.375.176.103.107-.233.185-.228.077.004 1.22 1.032 1.245 1.054.026.021-.069-.073.04.034.103.112.128.048.297.306.168.262-.143.404-.022.576.12.172.142.09.267.297.125.207.19.207.302.207.116 0 .082.034.134-.017.051-.048.137-.16.172-.048.034.112-.12-.133-.116.172.004.306.331-.223.349-.236.021-.013.103.047.069-.03-.035-.078-.315-.388-.156-.5.16-.116.035.267.22.181.181-.082.117.13.151.039.035-.09.026-.112-.004-.164-.026-.056-.254.052-.065-.094.185-.147.004-.073.401-.104.392-.025.323-.008.448.108.13.116-.026.108-.034.15-.009.044-.056.19-.052.272 0 .03.06.013.125.043.06.025.112-.03.086.043-.021.073.048.099.017.245-.03.15-.021.056-.064.095-.048.038-.1-.086-.082.073.017.159.207.082.254.193.052.112-.043.259.082.41.13.15.37-.104.496.02.129.121.185.164.487.108.422-.081-.336-.172.077-.19.31-.012.595.354.944.216.35-.142.13-.18.25-.228.12-.043.104.043.233.043.13 0 .086-.224.224-.064.138.159-.043.073-.056.33-.013.255.06.237.034.401-.025.164-.008.026-.043.228-.038.198-.168.31-.224.577-.06.266-.026.284-.155.396-.13.111-.284.103-.595.081-.31-.021-.112-.06-.232-.09-.121-.03-.074-.009-.13-.004-.056.004.224-.048-.211.013-.435.055-1.741.025-2.241-.28-.5-.306-.336-.233-.625-.172-.289.06-.241.056-.306.116a.354.354 0 0 0-.108.314c.022.133.207-.004.043.314-.163.314-.698-.12-.978-.176-.28-.056-.12.077-.332-.043-.211-.125-.021-.323-.405-.444-.384-.12-.547.013-.827-.133-.28-.142-.22-.103-.358-.15-.138-.048-.241-.233-.009-.422.233-.19.005-.878-.241-.934-.241-.056-.168.069-.397.133-.224.065-.49-.146-.806.005-.314.15-.383-.065-.862.077-.482.142-1.224.538-1.465.551-.241.013-.72-.198-1.021-.267-.302-.069-.237.564-.59.758-.354.189-.169.086-.406.25-.237.163-.052.15-.211.4-.164.249-.177.025-.12.507.055.482-.669.706-.828.805-.16.099.138-.013 0 0s-1.556 1.846-1.556 2.044c0 .198-.022.116.03.34.052.219.215.464.215.821 0 .358-.008.457-.116.629-.108.172-.43.95-.18 1.26.25.31.934.844 1.154 1.317.22.478.716.93 1.06 1.02.345.099 1.31.607 1.625.353.315-.254.806-.07 1.056-.022.25.052.362-.082.59-.22.23-.133.302-.111.544-.107.241.004.513.362.745.473.229.112.625.112.897.194.271.082.457.512.672.779.194.254-.241.9.509 1.558zm22.09-2.878c-.683-.29-.27-1.182-.16-1.35.104-.169.844 1.641.16 1.35zm-10.211 6.036c.424-.206.397-.3.578.366.18.667-.15.021-.212.172-.064.155.031.64-.014.856-.045.215-.108 2.228-1.27 2.348-1.161.12-.316-1.458-.538-2.073-.217-.61-.126.366-.104-.22.023-.584.796-.589.873-.77a.617.617 0 0 1 .424-.36c.2-.035-.162-.112.263-.319zm-31.42-5.617c-1.023-.502-3.446-1.768-3.296-2.116.151-.344-2.151.137-2.388-.28-.236-.416-.757 1.22-.74-.008.022-1.228-.452-.37-.74.189-.284.558-.577 1.1-1.132.584-.56-.515-2.07-.022-1.635-1.91.435-1.885-1.67.188-1.536-.94.138-1.13.925-2.31-.887-.417-1.811 1.897-1.979-3.122-.722-3.68 1.256-.558 2.38.37 3.27-.094.895-.464.731-.25.942-.653.211-.404 2.53-1.275 1.894-1.546-.637-.27 3.7-4.576 3.683-3.602-.017.98 2.38.43 1.192-.275-1.188-.704-.977-.364-.568-1.159.409-.794-2.638.966-.792-.455 1.846-1.421 3.24-.854 3.563-1.653.323-.798.03-.279-.262-.476-.293-.198-1.373-.752-.968-1.16.404-.403-.147-2.529-.56-1.781-.413.747-1.54.652-1.235-.28.306-.931-2.427-1.326-2.177-.103.25 1.228-.392 1.43-.207 2.096.181.665-1.256.373-1.2 1.781.051 1.409-.844.052-.792-.858.052-.91 1.347.343-1.067-1.022-2.41-1.361.516-4.062 1.88-5.414 1.364-1.353.835-.168 1.657-.679.822-.51.18-1.747-.327-1.927-.508-.18-1.244 1.902-1.23 1.133.012-.769.52-.949.072-.957-.443-.013-.219.893-.507.614-.289-.28.439-3.521-.706-1.898s1.041.455-.207 1.67c-1.247 1.215-.314.37-.735.107-.422-.266-1.455.03-2.023-.43-.568-.454.108-1.085-.839-.656-.942.434.534.082.198.442-.336.357-.387.344-.439.842-.056.502-.387-.756-.392-.773-.004-.017-1.893-.477-.963-.563.107-.008-1.933-2.516-2.458-2.722-1.949-.76-.839 2.074-4.72-.991C4.157 3.755 5.456 5.563 4.44 5.387c-1.016-.172-3.082 1.236-2.277 2.412.805 1.173.697.679.194.743-.5.065-1.136-.717-1.222-.253-.086.464-.766-.077-.925.24-.155.318.98.451.146.49-.83.038.008.558.31.682.576.24 1.958-1.52.843.361-2.195 3.688.887 4.143 1.442 3.851.555-.287 1.01-.828 1.506.039.495.863.985.155 1.106.79.116.631.684 1.361.563 1.992-.124.627 2.72 6.11 1.816 5.427-.903-.683-.387-.107-.585.43-.194.532-1.278 4.392.607 5.727 1.884 1.34.232-.606 1.342 1.039 1.115 1.649 3.172 5.573 5.177 5.491 2-.081 2.883 1.52 2.84 1.89-.043.369 1.738 1.704 1.687.78-.052-.922 1.742 1.254.727 1.8-1.011.54-.77 1.893-.697 1.713.073-.18-.452.82-.366 1.133.086.318 2.307 3.096 3.585 3.976 1.278.884-.814 7.269.327 8.527 1.136 1.258.258 3.314.137 3.744-.116.433.891 1.047.835 1.116-.064.069.258.88.581-.09.237-.713 1.377-1.962.534-2.684-.753-.644 1.007-2.078.464-1.893-.546.185-.245-.322-.28-.412-.034-.09.874-.387.801-.786-.073-.4 2.294-.927 1.226-1.692-1.062-.764.624.146 1.188-.506.564-.657 1.644-4.066 2.956-3.899 1.309.168.874-2.396 1.48-3.456.607-1.065.521-2.516-.64-3.018-1.162-.507-1.309.275-1.524.068-.21-.206-2.246-.73-2.259-.73 0 .01 1.076-1.086.052-1.588zm54.538 2.388c.09.018.072-.11-.091-.16-.168-.048-.286 1.34-.545.932-.255-.408-.019-.018.05-.408.068-.386-.282.32-.105-.817.177-1.135.127-1.091 1.013-.98.886.11.714-.35 1.01-.195.29.16.185.62-.66.408-.845-.213-1.031.639-.736.612.296-.03-.322-.15.1-.208.423-.058.582.12.096.372-.491.253.372.688.431.715.06.026-.413.297-.527.124-.113-.173-.032-.044-.063-.098-.037-.049-.064-.31.027-.297zm-2.528.375c-.248-.018-.079-.12-.555-.345-.476-.223-1.01-1.686-.57-1.522.438.159.339-.073.504-.284.166-.21 1.275-.977 1.482-1.407.207-.43.087.19.455.319s.058.193.087.417c.033.224-.195.043-.228.086-.037.043-.149.417.066.8.216.383-.182.675-.43 1.506-.252.83-.286.107-.36.18-.074.069.124.731-.17.297-.294-.443-.029-.03-.281-.047zm3.179 1.917c-.129-.396 1.117-.658 1.105-.601-.012.057-.976.997-1.105.6zm8.63-1.528c.152-.1.147.1.338-.048.192-.148.223-.723.472-.23.25.491-1.49.73-1.362.4.125-.322.4-.018.552-.122zm-3.895 13.762c-.025.128 0 1.94.293 1.606.298-.334.985-1.112.775-1.441-.21-.33-.431.124-.561.119-.13-.01-.482-.412-.507-.284zm-10.317-13.2c.03-.457 1.236.013 1.571-.004.331-.017-.402-.24.071-.17.478.066.063.257.968.462.91.204.185.191.118.27-.063.078-2.757-.105-2.728-.558zm19.74 12.016c.37 1.43-.265 1.114-.462 1.47-.2.362.245.313.278.486.032.165-.607.994-.137.86.474-.138.731-1.176.92-1.243.185-.067.442-.325.547-.713.108-.387-.519.085-.643-.084-.125-.17-.334-.713-.25-1.016.077-.299-.626-1.195-.253.24zm-.616 2.914c-.26.623-.498.411-.708.688-.21.277.449.2.02.273-.423.07-1.155 1.987-1.83 1.325-.675-.662.88-1.247 1.617-2.338.736-1.091.485-.333.67-.316.19.013.494-.251.23.368zm-7.713-16.523c.59.169 1.418.612 1.531.895.113.279.946.245.519.418-.427.173.414.71.55.743.134.034-.123.118-.023.173.1.055.659-.152.458.203-.2.355-1.5-.638-1.944-.912-.445-.275-.157.122-.354.228-.2.105.162-.038-.039.295-.21.33-.414-.35-1.125-.3-.706.055-.161-.008-.38-.472-.217-.465-1.264-.942-1.464-.98-.2-.038-.053.443-.44-.076-.389-.524.723.017.422-.367-.3-.38-.431.071-.593.008-.161-.063.27.11-.1-.203-.366-.316.828-.261.785.064-.04.33.113.667.654.236.536-.439.955-.126 1.543.047zm-11.94 1.173c-.7-.484-1.608-2.743-2.474-3.24-.866-.498.14-.628.555-.11.414.52 1.096.624 1.117.847.022.222.653.414.64.55-.017.139.09.235.218.4.128.166-.264.184.111.398.375.213.435 1.05.286 1.116-.145.066.243.524-.452.04zm9.946 2.983c.03.189.73.717 1.258.983.528.262.833-2.89 1.164-2.044.33.846-.047.739.433.829.481.09.108 1.615.64 1.864.528.249.43 1.06.721 1.103.297.043-.811-1.185.262.456 1.078 1.64-.919 3.624-1.318 5.458-.4 1.838-.618.532-.966.799-.348.262-.794.528-.691.111.107-.416-.112.04-.146-.034-.034-.073-.356.026-.112-.112.245-.137-2.005-2.761-2.683-2.808-.683-.047-1.683-.284-2.027-.202-.339.082-.747-.228-1.15.275-.404.502-.82-.065-1.469.408-.644.476-1.64-.078-1.322-.292.318-.215.022-2.521.138-2.74.12-.22-.395-.357-.09-.932.3-.571 1.051-1.267 2.056-1.4 1.005-.129 1.056-1.529 1.215-1.194.155.34.103.142.185-.094.081-.237.231.128.33.094s-.142-.313.073-.378c.215-.06.752-.683 1.013-.31.262.375.254.117.34.108.09-.008.094.28.146-.197.051-.473 1.009-.55 1.12-.748.112-.197-.944-.566-.03-.249.919.318.876.327 1.207.202.343-.12-.327.86-.297 1.044zM39.685 6.76c-.747.22-3.81 8.373-5.733 8.24-1.927-.133-.885 1.653-1.188 2.027-.304.378-.09.528-.252.777-.163.25-.133-1.185-.688-.61-.556.576-.393-1.571-.868-1.665-.478-.095.338-4.453.026-4.397-.312.055.077-.808.081-.82.252-1.658-1.281-3.118-1.286-3.114-.371.142-.965-1.769-1.072-2.073-.107-.301 2.076-.477 2.273-1.07.196-.592-.235-.356.401-1.026.637-.67.342.163.35.09.014-.068.868-1.013.932-1.017.06-.005.257.816.192.06-.068-.756 1.103-.636 1.257-.365.153.27-.62 1.567-.201.97.418-.597.38-.124.55-.129.172-.004.535-.446 1.035-.858.5-.413.184.326.419.159.235-.168.055-.503.196-.683.141-.18.521-.258.726.176.21.43.505-.524.68-.563.175-.043 1.683-.128 1.743.387.06.515-1.406.129-1.333.524.073.39.432-.12.538-.146.111-.026 1.808.051 1.124.317-.684.267 0-.201.59.27.585.469-1.675.301-2.085.757-.41.455 1.213-.365 1.247.077.034.442-.013.494.086.425.098-.073.53-.867.632-.382.107.485-1.47 1.49-1.184 1.477.287-.013 1.325-.906 1.419-1.035.094-.129.295-.107.41-.124.116-.022 1.235.18 1.081.524-.15.339-1.807 1.06-1.786 1.215.022.154 1.017-.438.363.348-.653.79.073 1.039-.675 1.258zM23.513 3.712c.51-.453-.061-1.036.474-.287.536.753-.984.74-.474.287zM21.848 4.81c1.165-.478.802 1.546-.24 1.3-1.038-.248.249-.32-.014-.53-.258-.208-.911-.291.254-.77zm.737-2.407c.078-.7 1.028-.606.914.405-.113 1.014.022 1.415-.622.805-.649-.61-.035-.383-.052-1.019-.022-.64-.323.507-.24-.191zm-.974 12.2c.527-1.715-.104-1.284.651-.78.755.507.72 1.451.248 1.006-.476-.444-1.426 1.488-.9-.226zM16.89 3.705c.474-.425 2.816-1.585 1.81-.401-1.007 1.184-.227.043-.953.582-.73.543-1.336.244-.858-.18zM26.968 23.26c-.183-.38-.456.396.184-.235.64-.63 1.077-.45 1.784-.359.702.095.054.755-.045.973-.103.215-.362-.387-.362-.387-.005-.004-1.377.387-1.56.008zM20.916 7.324c.899-.408.429.882.325 1.101-.104.22.122.943-.71.733-.83-.211-1.002-1.566-.343-1.356.66.21-.172-.07.728-.478zm-2.873-3.048c-.316-.631 1.38-.438.941.377-.438.812.386.316.56-.324.179-.636.142.381.446.592.305.21-.446.96-.458.93-.012-.027-1.87.004-1.172-.377.693-.382-.236.057-.475-.312-.243-.377.475-.254.158-.886zm5.467 1.297c-.44-2.032.675.272.536.335-.745.343 2.352.934 1.803 1.315-.549.381-.227.373-1.49.126-1.258-.247-.692-1.043-.849-1.776zm-8.12.177c.136-.962 2.027-.181 1.522.337-.509.513-2.683 2.054-2.7 1.167-.023-.884 1.04-.539 1.177-1.504zm10.087-4.173c.294-.524.188-.672.542-.736.354-.068.218.617.337 1.115.115.502.158-.004.363.115.205.115-.666.796-.295.817.372.021-1.041 1.864-1.664 1.11-.623-.757.153-1.876.316-1.978.166-.103.106.08.4-.443zm-9.803 5.767c.517-.396-.13-.018.975-.531 1.104-.51.567.692.949.779.378.087.076.709.277.835.198.126 1.575-2.058.878-.226-.45 1.174-1.004 1.818-.588 2.075.416.256-.34.495-.861.113-.517-.383-1.554.583-2.327-.74-.773-1.327.836-.718 1.025-.896.189-.183-.844-1.014-.328-1.41zm6.629 2.46c-.131-.37.977-1.773 1.695-1.722.72.052-.486.74-.486 1.92 0 1.179.119-.448.296-.581.178-.134.14-.547.351-.586.207-.038 1.43-.408.812.43-.617.84.88 1.033 1.637 1.06.752.025-.373.903.122.67.5-.228.004-.116.284.01.279.124 1.492 2.065 1.023 3.27-.47 1.205-.761-.986-1.235-.422-.473.564-.376-.538.106 1.21.482 1.746-1.21-.29-.613 1.002.596 1.29-1.544-1.158-1.611-1.184-.068-.03-.022-.352-.415-.172-.397.181-.617-.417-.296-.585.321-.172.207.568.575.207.364-.362.884-2.109.88-2.311-.009-.198-.339.391-.457.155-.114-.237.241-.792 0-1.102-.241-.305.038-.284-.22-.396-.258-.112-.122.671-.482.495-.364-.172-2.275-.258-1.92-.904.347-.654.085-.09-.046-.464zM29.478.27c.12-.147.055.078.013-.104-.047-.182.454-.108.514-.06.06.043-.115.281.008.312.12.03.323-.656.722-.33.4.321-.212.403.077.252.288-.157.11.112.377.004.268-.109-.22-.052.383.126.598.173-.128.208.119.442.246.23.386-.147.586.018.2.165.233-.326.297-.044.068.287.794.838-.26 1.133-1.052.295-5.108 2.83-5.146 3.628-.038.799-.756 1.437-1.002.747-.246-.69-.599.147-1.397-.248-.794-.395.569-.117.645-.707.073-.59 1.317-.009.145-.799s1.091-.295 1.312-.351c.225-.057-.37-.313-.213-.482.158-.17.128-.03.153-.82.026-.79.918.464.833.165-.085-.3.144-.725.344-1.064.2-.342-.735.105-1.087.04-.353-.066-.179-.651-.068-.864.106-.213-.183-.004.03-.2.212-.195.008.074-.154-.043-.157-.117.357-.404.531-.425.174-.022.697-.026.726-.148.026-.121.17.056.238.009.068-.048-.246-.126.026-.239.271-.113.225.308.51.16.28-.151.02-.281.237-.13.217.152.025-.151.2-.238.165-.083.178.408.301.26zM87.13 26.166c.143.643.122 1.053-.14 1.084-.256.03.156-.507-.092-.24-.248.266-.168.144-.265.205s-.008.297-.336.2c-.329-.095-.055-.2-.278.333-.219.533-.067-.11-.34-.323-.279-.219.045.629-.211.607-.257-.022.008.332-.337.249-.345-.083.324-.568.24-.725-.084-.158-.324.284-.576.284-.257 0 .037-.1-.026.668-.059.765-.151.376-.21.341-.063-.035-.114.398-.219-.144-.1-.542-.442-.45.16-1.088.606-.638 1.136-.354 1.25-.857.113-.502.248-.493.458-.406.21.087.101.07.249-.463.147-.533-.072-.546-.076-.944 0-.397.059-.459.21-.45.156.009-.311-1.17.215-.048.526 1.114.18 1.075.324 1.717zM60.49 9.152c.162-.374-.143-.218.236-.1.379.117-.4.474-.235.1zm21.502 23.541c-.327.358-.405.23-.31-.615.097-.845.636.257.31.615zm.128 2.054c-.022-.122-.488-.484.096-.72.583-.24.274.977.418 1.31.144.33-.331.453-.335.18 0-.273-.061-.008-.222-.383-.157-.378.07-.264.043-.387zM61.882 2.34c.174 1.12 1.28-.164.954-.586-.322-.422.13-.258-.035-.315-.17-.063-1.093-.218-.919.901zm2.851.403c-.278-.52.191.004.36-.113.186-.124 1.565.166.618.77-.937.6-.696-.141-.978-.657zm21.903 20.805c.057-.09.096-.09-.053-.738s.5.232.956.228c.456 0 .202.082.364.278.162.191.153-.338.149-.041 0 .3-.452.36-.478.31-.026-.05-.022.652-.43.355-.407-.296-.85-.16-.504.096.347.251.066.835-.175.2-.241-.624.114-.597.17-.688zM63.178 2.55c-.145-.312-.366.037-.014-.29.352-.325.316.042.69.212.366.17-.148-.276.005-.487.15-.211.758.61.668.749-.09.133 1.088.794-.23.56-1.323-.243-.975-.436-1.12-.744zm-6.663 7.62c-.153-.246.695-.13.718.076.06.461 1.014 1.509.64 1.404-.376-.109-.955.31-.811-.23.106-.403-.427-.071-.668-.18-.083-.038-.088-.114-.083-.256.023-.591.134-.16 0-.62-.134-.466.357.05.204-.193zm18.769-7.88c.194-.263.207.395 1.13.685.56.176-.114-.063-.447.172s.16.102-.29.435c-.452.336-1.89-1.535-.983-1.245.906.286.367.254.59-.047zm9.504 15.22c-.073-.07-.172-.411.111-.114.283.303-.03.101.87 1.612.9 1.512.72.977.394 1.2-.325.224.288.794.57 1.034.283.246.28.447-.042.408-.318-.04-.095.342-.27.36-.172.017-.172.003-.202-.474-.03-.478-1.41-3.255-1.359-3.526.052-.268-.004-.43-.072-.5zM57.553 7.285c.146-.213.226-.138.465-.276.235-.138.581-1.241.967-.756.381.484-.55.998-1.104 1.805-.555.806-.195.768-.284.977-.089.213-.43-.154-.275.021.155.171.177.426-.142.418-.32-.008-.492.05-.257-.217.24-.268-.532.213-.32-.15.214-.364.262-.055.373-.143.111-.088-.363-.192-.182-.271.076-.038.018-.109-.022-.172-.19-.334-.075-.225.013-.321.09-.1.09-.218.196-.41.106-.192.425-.296.572-.505zm-1.025 18.467c.03.178-.087.29-.266.364-.179.075-.227-.041-.563.03-.33.07-.985-.373-1.19-.373-.209 0-.3-.02-.662.083-.362.103-.266.207-.476.293-.209.087-.174-.04-.309-.04s-.314-.133-.327.028c-.009.161.096.066.192.161.1.095-.179.017-.223.054-.043.037.123.087.027.112-.096.02-.327-.004-.48-.009-.157-.004-.2-.016-.052-.115.144-.1.104-.137.283-.14.183-.005.17.102.227-.017.057-.116-.057-.075-.179-.15-.122-.07-.105-.07-.152-.202-.048-.132-.197.033-.136-.194.061-.224.083-.228.262-.372.179-.145.017.053.022-.244.004-.298.248-.224.257-.455.013-.232-.196.02-.009-.116.183-.14.28-.422.545-.45.27-.026.127.012.218.02.096.008-.122.062-.148.074-.026.017-.118-.029-.026.017.087.041.157.153.58.116.422-.038.174-.03.444-.145.266-.116.292-.041.519-.211.227-.17.38-.236.628-.145.253.091-.114.124-.192.19-.074.067-.013.013-.017.017-.005.004.008 0-.018.017-.026.016-.179-.021-.152.095.03.111.209-.021.165.149-.048.165-.152.177-.165.289-.018.112-.1-.004-.123-.004-.021 0-.017 0-.026.004-.013.004-.043-.062-.048.008-.004.07-.183.112.24.273.423.161.48.31 1.02.58.55.268.275.23.31.408zm-14.281-4.468c.092.588.046.625-.476.908-.521.283-.914-.119-.785-.164.134-.046.102-.178.144-.306.041-.128.013-.215.004-.26-.009-.05.143-.119.143-.17 0-.045-.401-.104-.074-.232.333-.128-.424-.58.831-.397 1.265.187.12.037.213.62zm5.73 6.172c.117-.17.265.005.444-.017.178-.017.335-.213.444-.091.109.121-.057.126-.083.274-.022.152.148.196 0 .322-.152.126-.33-.135-.444-.192-.113-.052-.1-.065-.226-.121-.127-.057-.257-.005-.135-.175zm-1.403-1.075c-.1-.278.022-.013.03-.017.01-.004.005 0 .027-.017.026-.018.074-.057.121-.083.048-.026.083-.122.205-.035.122.083.061.192.07.335.008.144.017.322.004.405-.009.083.118-.056-.03.013-.148.07-.022.24-.249.135-.226-.109-.078-.457-.178-.736zm7.207-1.862c.021-.118.117-.118.201-.196.084-.074.013-.022.038-.04.025-.021-.025-.047.1-.039.122.009.193.244.34.279.146.035.39-.209.423-.044.037.17-.013.088-.226.131-.214.04-.449.383-.633.24-.184-.14.05-.192-.042-.266-.084-.074-.218.052-.201-.065zm-11.16-3.847c-.055-.12-.593-1.534.038-1.694.631-.16.119.372.254.457.136.084.424-.129.517-.014.093.12-.695.794-.339.75.356-.045.932 1.432 1.119 1.414.186-.018.601-.15.216.355-.386.5.847.115-.636.603-1.483.483-1.275.306-1.105.075.173-.23.046-.07.487-.266.44-.195-.886-.155-.458-.412.432-.257.564-.87.44-.94-.122-.071.018-.355-.088-.377-.093-.022-.39.168-.445.049z" fill="#E6E8EB" fill-rule="evenodd"/></svg>