<?xml version="1.0" standalone="no"?>
<!DOCTYPE svg PUBLIC "-//W3C//DTD SVG 20010904//EN"
 "http://www.w3.org/TR/2001/REC-SVG-20010904/DTD/svg10.dtd">
<svg version="1.0" xmlns="http://www.w3.org/2000/svg"
 width="128.000000pt" height="128.000000pt" viewBox="0 0 128.000000 128.000000"
 preserveAspectRatio="xMidYMid meet">
<metadata>
Created by potrace 1.16, written by Peter Selinger 2001-2019
</metadata>
<g transform="translate(0.000000,128.000000) scale(0.100000,-0.100000)"
fill="#000000" stroke="none">
<path d="M465 1262 c-224 -67 -392 -239 -449 -459 -21 -80 -21 -246 0 -327 57
-220 248 -410 465 -461 82 -19 236 -19 317 0 220 52 408 238 466 462 21 80 21
246 0 327 -22 84 -85 202 -144 269 -64 71 -171 142 -263 175 -96 35 -298 42
-392 14z m90 -406 c89 -41 135 -114 135 -216 0 -102 -46 -175 -135 -216 -195
-91 -399 93 -330 297 45 132 201 196 330 135z m346 -27 c105 -113 59 -409 -63
-409 -70 0 -118 90 -118 220 0 91 20 152 62 198 32 33 83 30 119 -9z m151 -16
c16 -37 16 -309 0 -345 -6 -16 -18 -28 -26 -28 -25 0 -40 76 -40 200 0 124 15
200 40 200 8 0 20 -12 26 -27z"/>
</g>
</svg>
